<?xml version="1.0" encoding="UTF-8"?>
<svg width="45px" height="40px" viewBox="0 0 45 40" version="1.1" xmlns="http://www.w3.org/2000/svg" xmlns:xlink="http://www.w3.org/1999/xlink">
    <!-- Generator: Sketch 50.2 (55047) - http://www.bohemiancoding.com/sketch -->
    <title>Group 6</title>
    <desc>Created with Sketch.</desc>
    <defs>
        <polygon id="path-1" points="0.299071233 0.0244444444 11.481756 0.0244444444 11.481756 16.4794093 0.299071233 16.4794093 0.299071233 0.0244444444"></polygon>
        <polygon id="path-3" points="0.486641242 0.0244444444 11.669326 0.0244444444 11.669326 16.4794093 0.486641242 16.4794093"></polygon>
    </defs>
    <g id="Final---Prototype" stroke="none" stroke-width="1" fill="none" fill-rule="evenodd">
        <g id="Share-Care---Hub-Details2" transform="translate(-90.000000, -18.000000)">
            <g id="logo-/-3" transform="translate(90.000000, 18.000000)">
                <g id="Group-35" transform="translate(0.000000, 0.716667)">
                    <g id="Group-6">
                        <path d="M39.5637288,17.9521481 L42.5714548,20.3417778 C43.8008795,21.3173333 44.5161945,22.801037 44.5161945,24.3714074 L44.5161945,36.5862222 C44.5161945,38.006963 43.3666603,39.1580741 41.9486055,39.1580741 L38.523674,39.1580741 C37.1056192,39.1580741 35.9553452,38.006963 35.9553452,36.5862222 L35.9553452,27.6632593 C35.9553452,27.2551111 35.8096192,26.8580741 35.5433178,26.5477037 C34.8605507,25.7491852 33.6266877,25.7491852 32.9431808,26.5477037 C32.6768795,26.8580741 32.5311534,27.2551111 32.5311534,27.6632593 L32.5311534,36.5862222 C32.5311534,38.006963 31.3808795,39.1580741 29.9628247,39.1580741 L26.5386329,39.1580741 C25.1205781,39.1580741 23.9703041,38.006963 23.9703041,36.5862222 L23.9703041,24.3714074 C23.9703041,22.801037 24.6863589,21.3173333 25.9150438,20.3417778 L28.9235096,17.9521481 C32.0392356,15.4765926 36.447263,15.4765926 39.5637288,17.9521481" id="Fill-25" fill="#25C387"></path>
                        <g id="Group-29" transform="translate(23.671233, 0.000000)">
                            <mask id="mask-2" fill="white">
                                <use xlink:href="#path-1"></use>
                            </mask>
                            <g id="Clip-28"></g>
                            <path d="M5.75233151,0.0238518519 C2.8674,0.0238518519 0.583126027,2.3282963 0.324961644,5.27125926 C0.309427397,5.44977778 0.299071233,5.63051852 0.299071233,5.81348148 L0.299071233,15.3342222 C0.299071233,16.294963 1.41161918,16.8275556 2.15800274,16.2231111 L9.55304384,10.2416296 C12.5696466,7.72533333 12.5696466,0.0238518519 5.75233151,0.0238518519" id="Fill-27" fill="#25C387" mask="url(#mask-2)"></path>
                        </g>
                        <path d="M4.95335342,17.9521481 L1.94488767,20.3417778 C0.715463014,21.3173333 0.000147945205,22.801037 0.000147945205,24.3714074 L0.000147945205,36.5862222 C0.000147945205,38.006963 1.14968219,39.1580741 2.56773699,39.1580741 L5.99266849,39.1580741 C7.41072329,39.1580741 8.56099726,38.006963 8.56099726,36.5862222 L8.56099726,27.6632593 C8.56099726,27.2551111 8.70672329,26.8580741 8.97302466,26.5477037 C9.65579178,25.7491852 10.8896548,25.7491852 11.5731616,26.5477037 C11.839463,26.8580741 11.985189,27.2551111 11.985189,27.6632593 L11.985189,36.5862222 C11.985189,38.006963 13.135463,39.1580741 14.5535178,39.1580741 L17.9777096,39.1580741 C19.3957644,39.1580741 20.5460384,38.006963 20.5460384,36.5862222 L20.5460384,24.3714074 C20.5460384,22.801037 19.8299836,21.3173333 18.6012986,20.3417778 L15.5928329,17.9521481 C12.4771068,15.4765926 8.06907945,15.4765926 4.95335342,17.9521481" id="Fill-30" fill="#1589F9"></path>
                        <g id="Group-34" transform="translate(8.876712, 0.000000)">
                            <mask id="mask-4" fill="white">
                                <use xlink:href="#path-3"></use>
                            </mask>
                            <g id="Clip-33"></g>
                            <path d="M6.21606575,0.0238518519 C9.10099726,0.0238518519 11.3852712,2.3282963 11.6434356,5.27125926 C11.6589699,5.44977778 11.669326,5.63051852 11.669326,5.81348148 L11.669326,15.3342222 C11.669326,16.294963 10.5567781,16.8275556 9.81039452,16.2231111 L2.41535342,10.2416296 C-0.601249315,7.72533333 -0.601249315,0.0238518519 6.21606575,0.0238518519" id="Fill-32" fill="#1589F9" mask="url(#mask-4)"></path>
                        </g>
                    </g>
                </g>
            </g>
        </g>
    </g>
</svg>